<svg width="40" height="40" viewBox="0 0 40 40" fill="none" xmlns="http://www.w3.org/2000/svg">
<g id="Activity" clip-path="url(#clip0_1866_1455)">
<g id="Layer 2">
<g id="activity">
<path id="Vector" d="M23.8833 33.3332H23.5333C22.8278 33.2632 22.1631 32.9702 21.6356 32.4966C21.1081 32.0231 20.7453 31.3937 20.5999 30.6999L16.1333 9.99989L11.5333 20.6666C11.4031 20.9647 11.1886 21.2182 10.9162 21.3959C10.6437 21.5736 10.3252 21.6677 9.99992 21.6666H4.99992C4.55789 21.6666 4.13397 21.491 3.82141 21.1784C3.50885 20.8658 3.33325 20.4419 3.33325 19.9999C3.33325 19.5579 3.50885 19.1339 3.82141 18.8214C4.13397 18.5088 4.55789 18.3332 4.99992 18.3332H8.89992L13.0833 8.68322C13.3649 8.03566 13.8448 7.49425 14.454 7.13707C15.0631 6.77989 15.77 6.62538 16.4726 6.69583C17.1752 6.76628 17.8373 7.05804 18.3634 7.52905C18.8895 8.00006 19.2525 8.62597 19.3999 9.31656L23.8666 29.9999L28.4666 19.3666C28.5916 19.0622 28.8039 18.8016 29.0768 18.6178C29.3497 18.4339 29.6709 18.3349 29.9999 18.3332H34.9999C35.4419 18.3332 35.8659 18.5088 36.1784 18.8214C36.491 19.1339 36.6666 19.5579 36.6666 19.9999C36.6666 20.4419 36.491 20.8658 36.1784 21.1784C35.8659 21.491 35.4419 21.6666 34.9999 21.6666H31.0999L26.9166 31.3166C26.6611 31.9107 26.2383 32.4178 25.6997 32.7759C25.1611 33.1339 24.53 33.3276 23.8833 33.3332Z" fill="#C1BBEB"/>
</g>
</g>
</g>
<defs>
<clipPath id="clip0_1866_1455">
<rect width="40" height="40" fill="white"/>
</clipPath>
</defs>
</svg>
