<svg width="40" height="40" viewBox="0 0 40 40" fill="none" xmlns="http://www.w3.org/2000/svg">
<g id="Chat">
<path id="Vector" d="M33.3334 3.33301H16.6667C15.3407 3.33301 14.0689 3.85979 13.1312 4.79747C12.1935 5.73516 11.6667 7.00693 11.6667 8.33301V11.6663H6.66675C5.34067 11.6663 4.0689 12.1931 3.13121 13.1308C2.19353 14.0685 1.66675 15.3403 1.66675 16.6663V26.6663C1.66621 27.7008 1.98651 28.7099 2.58351 29.5546C3.18051 30.3994 4.02482 31.0382 5.00008 31.383V34.9997C5.00059 35.295 5.07956 35.5849 5.22892 35.8397C5.37827 36.0944 5.59264 36.305 5.85008 36.4497C6.09917 36.5908 6.38043 36.6655 6.66675 36.6663C6.96589 36.6663 7.25949 36.5857 7.51675 36.433L15.4667 31.6663H23.3334C24.6595 31.6663 25.9313 31.1396 26.8689 30.2019C27.8066 29.2642 28.3334 27.9924 28.3334 26.6663V25.6163L32.4834 28.0997C32.7407 28.2523 33.0343 28.3329 33.3334 28.333C33.6197 28.3321 33.901 28.2575 34.1501 28.1163C34.4075 27.9716 34.6219 27.7611 34.7712 27.5063C34.9206 27.2516 34.9996 26.9617 35.0001 26.6663V23.0497C35.9753 22.7049 36.8196 22.0661 37.4166 21.2213C38.0137 20.3766 38.334 19.3674 38.3334 18.333V8.33301C38.3334 7.00693 37.8066 5.73516 36.8689 4.79747C35.9313 3.85979 34.6595 3.33301 33.3334 3.33301ZM25.0001 26.6663C25.0001 27.1084 24.8245 27.5323 24.5119 27.8449C24.1994 28.1574 23.7754 28.333 23.3334 28.333H15.0001C14.7009 28.3331 14.4073 28.4137 14.1501 28.5663L8.33342 32.0497V29.9997C8.33342 29.5576 8.15782 29.1337 7.84526 28.8212C7.5327 28.5086 7.10878 28.333 6.66675 28.333C6.22472 28.333 5.8008 28.1574 5.48824 27.8449C5.17568 27.5323 5.00008 27.1084 5.00008 26.6663V16.6663C5.00008 16.2243 5.17568 15.8004 5.48824 15.4878C5.8008 15.1753 6.22472 14.9997 6.66675 14.9997H11.6667V18.333C11.6667 19.6591 12.1935 20.9309 13.1312 21.8685C14.0689 22.8062 15.3407 23.333 16.6667 23.333H24.5334L25.0001 23.6163V26.6663ZM35.0001 18.333C35.0001 18.775 34.8245 19.199 34.5119 19.5115C34.1994 19.8241 33.7754 19.9997 33.3334 19.9997C32.8914 19.9997 32.4675 20.1753 32.1549 20.4878C31.8423 20.8004 31.6667 21.2243 31.6667 21.6663V23.7163L25.8501 20.233C25.5928 20.0804 25.2992 19.9998 25.0001 19.9997H16.6667C16.2247 19.9997 15.8008 19.8241 15.4882 19.5115C15.1757 19.199 15.0001 18.775 15.0001 18.333V8.33301C15.0001 7.89098 15.1757 7.46706 15.4882 7.1545C15.8008 6.84194 16.2247 6.66634 16.6667 6.66634H33.3334C33.7754 6.66634 34.1994 6.84194 34.5119 7.1545C34.8245 7.46706 35.0001 7.89098 35.0001 8.33301V18.333Z" fill="#C1BBEB"/>
</g>
</svg>
