<svg width="40" height="41" viewBox="0 0 40 41" fill="none" xmlns="http://www.w3.org/2000/svg">
<path d="M12.5 15.4998H14.1667M14.1667 15.4998H27.5M14.1667 15.4998V27.1665C14.1667 27.6085 14.3423 28.0325 14.6548 28.345C14.9674 28.6576 15.3913 28.8332 15.8333 28.8332H24.1667C24.6087 28.8332 25.0326 28.6576 25.3452 28.345C25.6577 28.0325 25.8333 27.6085 25.8333 27.1665V15.4998H14.1667ZM16.6667 15.4998V13.8332C16.6667 13.3911 16.8423 12.9672 17.1548 12.6547C17.4674 12.3421 17.8913 12.1665 18.3333 12.1665H21.6667C22.1087 12.1665 22.5326 12.3421 22.8452 12.6547C23.1577 12.9672 23.3333 13.3911 23.3333 13.8332V15.4998M18.3333 19.6665V24.6665M21.6667 19.6665V24.6665" stroke="#667085" stroke-width="1.66667" stroke-linecap="round" stroke-linejoin="round"/>
</svg>
