<svg width="40" height="41" viewBox="0 0 40 41" fill="none" xmlns="http://www.w3.org/2000/svg">
<path d="M24.1666 12.9999C24.3855 12.7811 24.6453 12.6074 24.9313 12.489C25.2173 12.3705 25.5238 12.3096 25.8333 12.3096C26.1428 12.3096 26.4493 12.3705 26.7353 12.489C27.0213 12.6074 27.2811 12.7811 27.5 12.9999C27.7188 13.2188 27.8924 13.4786 28.0109 13.7646C28.1294 14.0506 28.1903 14.3571 28.1903 14.6666C28.1903 14.9761 28.1294 15.2826 28.0109 15.5686C27.8924 15.8546 27.7188 16.1144 27.5 16.3333L16.25 27.5833L11.6666 28.8333L12.9166 24.2499L24.1666 12.9999Z" stroke="#667085" stroke-width="1.66667" stroke-linecap="round" stroke-linejoin="round"/>
</svg>
