<svg width="32" height="32" viewBox="0 0 32 32" fill="none" xmlns="http://www.w3.org/2000/svg">
<g id="gear">
<path id="Vector" d="M12.2629 2.6665L11.4166 6.46598C10.9352 6.69762 10.4751 6.96442 10.0338 7.26546L6.32023 6.09619L2.58325 12.5702L5.39836 15.1483C5.28837 15.9646 5.33819 16.3671 5.39836 16.8514L2.58325 19.4295L6.32023 25.9035L10.0338 24.7342C10.4751 25.0353 10.9352 25.3021 11.4166 25.5337L12.2629 29.3332H19.7369L20.5833 25.5337C21.0646 25.3021 21.5248 25.0353 21.9661 24.7342L25.6796 25.9035L29.4166 19.4295L26.6015 16.8514C26.6245 16.568 26.6663 16.2844 26.6666 15.9998C26.6677 15.7067 26.6215 15.4106 26.6015 15.1483L29.4166 12.5702L25.6796 6.09619L21.9661 7.26546C21.5248 6.96442 21.0646 6.69762 20.5833 6.46598L19.7369 2.6665H12.2629ZM14.4036 5.33317H17.5963L18.2551 8.2915L18.9166 8.55192C19.6648 8.84495 20.3643 9.24829 20.9921 9.74984L21.5494 10.1925L24.44 9.28369L26.0364 12.0493L23.802 14.0988L23.9088 14.8019C24.0344 15.5795 24.01 16.4744 23.9088 17.1978L23.802 17.9009L26.0364 19.9504L24.44 22.716L21.5494 21.8071L20.9921 22.2498C20.3643 22.7514 19.6648 23.1547 18.9166 23.4478L18.2551 23.7082L17.5963 26.6665H14.4036L13.7447 23.7082L13.0833 23.4478C12.335 23.1547 11.6356 22.7514 11.0077 22.2498L10.4504 21.8071L7.55981 22.716L5.96346 19.9504L8.19783 17.9009L8.09106 17.1978C7.96083 16.4045 7.98083 15.4966 8.09106 14.8019L8.19783 14.0988L5.96346 12.0493L7.55981 9.28369L10.4504 10.1925L11.0077 9.74984C11.6356 9.24829 12.335 8.84495 13.0833 8.55192L13.7447 8.2915L14.4036 5.33317ZM15.9999 10.6665C13.0702 10.6665 10.6666 13.0701 10.6666 15.9998C10.6666 18.9296 13.0702 21.3332 15.9999 21.3332C18.9296 21.3332 21.3333 18.9296 21.3333 15.9998C21.3333 13.0701 18.9296 10.6665 15.9999 10.6665ZM15.9999 13.3332C17.4885 13.3332 18.6666 14.5113 18.6666 15.9998C18.6666 17.4884 17.4885 18.6665 15.9999 18.6665C14.5114 18.6665 13.3333 17.4884 13.3333 15.9998C13.3333 14.5113 14.5114 13.3332 15.9999 13.3332Z" fill="#A098AE"/>
</g>
</svg>
