<svg width="40" height="40" viewBox="0 0 40 40"  xmlns="http://www.w3.org/2000/svg">
<g  id="Home">
<path id="Vector" d="M33.3332 13.3329L23.3332 4.56619C22.4165 3.74626 21.2298 3.29297 19.9999 3.29297C18.77 3.29297 17.5833 3.74626 16.6666 4.56619L6.66658 13.3329C6.13719 13.8063 5.71475 14.3871 5.42737 15.0366C5.13999 15.6861 4.99427 16.3893 4.99991 17.0995V31.6662C4.99991 32.9923 5.5267 34.264 6.46438 35.2017C7.40206 36.1394 8.67383 36.6662 9.99991 36.6662H29.9999C31.326 36.6662 32.5978 36.1394 33.5354 35.2017C34.4731 34.264 34.9999 32.9923 34.9999 31.6662V17.0829C35.0032 16.3755 34.8563 15.6754 34.569 15.029C34.2817 14.3826 33.8605 13.8044 33.3332 13.3329ZM23.3332 33.3329H16.6666V24.9995C16.6666 24.5575 16.8422 24.1336 17.1547 23.821C17.4673 23.5085 17.8912 23.3329 18.3332 23.3329H21.6666C22.1086 23.3329 22.5325 23.5085 22.8451 23.821C23.1576 24.1336 23.3332 24.5575 23.3332 24.9995V33.3329ZM31.6666 31.6662C31.6666 32.1082 31.491 32.5321 31.1784 32.8447C30.8659 33.1573 30.4419 33.3329 29.9999 33.3329H26.6666V24.9995C26.6666 23.6734 26.1398 22.4017 25.2021 21.464C24.2644 20.5263 22.9927 19.9995 21.6666 19.9995H18.3332C17.0072 19.9995 15.7354 20.5263 14.7977 21.464C13.86 22.4017 13.3332 23.6734 13.3332 24.9995V33.3329H9.99991C9.55789 33.3329 9.13396 33.1573 8.8214 32.8447C8.50884 32.5321 8.33325 32.1082 8.33325 31.6662V17.0829C8.33355 16.8462 8.38424 16.6123 8.48194 16.3968C8.57965 16.1813 8.72213 15.989 8.89991 15.8329L18.8999 7.08286C19.2041 6.81566 19.5951 6.6683 19.9999 6.6683C20.4048 6.6683 20.7958 6.81566 21.0999 7.08286L31.0999 15.8329C31.2777 15.989 31.4202 16.1813 31.5179 16.3968C31.6156 16.6123 31.6663 16.8462 31.6666 17.0829V31.6662Z" fill="#C1BBEB"/>
</g>
</svg>
