<svg width="48" height="48" viewBox="0 0 48 48" fill="none" xmlns="http://www.w3.org/2000/svg">
<path d="M41.3598 26.3331C40.8464 26.3331 40.3097 26.1698 39.7964 26.0531C38.7569 25.824 37.7353 25.5199 36.7397 25.1431C35.6573 24.7493 34.4674 24.7698 33.3991 25.2005C32.3308 25.6313 31.4596 26.4419 30.9531 27.4764L30.4398 28.5264C28.1671 27.2622 26.0787 25.692 24.2331 23.8598C22.4009 22.0141 20.8307 19.9258 19.5664 17.6531L20.5464 16.9998C21.5809 16.4932 22.3916 15.622 22.8223 14.5537C23.2531 13.4854 23.2735 12.2956 22.8797 11.2131C22.5093 10.2154 22.2053 9.1943 21.9697 8.15644C21.8531 7.64311 21.7598 7.10644 21.6897 6.56977C21.4064 4.92622 20.5455 3.43784 19.2622 2.37267C17.9789 1.30749 16.3574 0.735528 14.6897 0.759774H7.68975C6.68415 0.750332 5.68833 0.957672 4.77007 1.36768C3.85181 1.77768 3.03267 2.38073 2.36842 3.13577C1.70417 3.8908 1.21039 4.78009 0.920719 5.74311C0.631044 6.70612 0.552265 7.72024 0.689747 8.71644C1.9328 18.4917 6.39715 27.5742 13.3776 34.5293C20.3581 41.4844 29.4567 45.9156 39.2364 47.1231H40.1231C41.8437 47.1256 43.505 46.4943 44.7897 45.3498C45.5279 44.6895 46.1176 43.8802 46.5198 42.9752C46.9221 42.0702 47.1277 41.0901 47.1231 40.0998V33.0998C47.0945 31.479 46.5043 29.9184 45.4532 28.6843C44.4021 27.4503 42.9553 26.6192 41.3598 26.3331ZM42.5264 40.3331C42.526 40.6644 42.455 40.9918 42.3182 41.2936C42.1815 41.5953 41.982 41.8645 41.7331 42.0831C41.4724 42.3082 41.1675 42.4764 40.838 42.5768C40.5085 42.6773 40.1617 42.7078 39.8198 42.6664C31.0812 41.546 22.9643 37.5482 16.7494 31.3038C10.5345 25.0593 6.57537 16.9236 5.49641 8.17977C5.45928 7.83798 5.49182 7.49221 5.59209 7.16335C5.69235 6.83449 5.85824 6.52938 6.07975 6.26644C6.2984 6.01755 6.56756 5.81807 6.8693 5.68128C7.17104 5.54449 7.49845 5.47353 7.82975 5.47311H14.8297C15.3724 5.46103 15.9022 5.63849 16.3281 5.97494C16.754 6.31139 17.0492 6.78577 17.1631 7.31644C17.2564 7.95422 17.3731 8.58422 17.5131 9.20644C17.7826 10.4364 18.1414 11.6452 18.5864 12.8231L15.3197 14.3398C15.0404 14.4679 14.7892 14.65 14.5804 14.8755C14.3717 15.101 14.2095 15.3655 14.1033 15.6539C13.9971 15.9422 13.9488 16.2487 13.9614 16.5558C13.9739 16.8628 14.047 17.1644 14.1764 17.4431C17.5345 24.6362 23.3167 30.4183 30.5098 33.7764C31.0778 34.0098 31.715 34.0098 32.2831 33.7764C32.5741 33.6724 32.8415 33.5115 33.0698 33.3032C33.2981 33.0949 33.4828 32.8434 33.6131 32.5631L35.0597 29.2964C36.266 29.7278 37.4971 30.0862 38.7464 30.3698C39.3686 30.5098 39.9986 30.6264 40.6364 30.7198C41.1671 30.8336 41.6415 31.1289 41.9779 31.5548C42.3144 31.9807 42.4918 32.5105 42.4798 33.0531L42.5264 40.3331Z" fill="#fff"/>
</svg>
