<svg width="24" height="24" viewBox="0 0 24 24" fill="none" xmlns="http://www.w3.org/2000/svg">
<g id="User">
<path id="Vector" d="M15.7054 6.52515C15.7054 6.7314 15.6913 6.93765 15.6656 7.14156C15.6773 7.05953 15.689 6.97515 15.6984 6.89312C15.6421 7.30093 15.5343 7.69703 15.3773 8.07672C15.4077 8.00172 15.4405 7.92672 15.471 7.85172C15.314 8.22203 15.1124 8.5689 14.8663 8.88765C14.9155 8.82437 14.9648 8.76109 15.014 8.69781C14.7702 9.01187 14.4866 9.29547 14.1726 9.53922C14.2359 9.49 14.2991 9.44078 14.3624 9.39156C14.0437 9.63531 13.6968 9.83922 13.3265 9.99625C13.4015 9.96578 13.4765 9.93297 13.5515 9.9025C13.1718 10.0595 12.7757 10.1673 12.3679 10.2236C12.4499 10.2119 12.5343 10.2002 12.6163 10.1908C12.2062 10.2447 11.7937 10.2447 11.3835 10.1908C11.4655 10.2025 11.5499 10.2142 11.632 10.2236C11.2241 10.1673 10.828 10.0595 10.4484 9.9025C10.5234 9.93297 10.5984 9.96578 10.6734 9.99625C10.303 9.83922 9.95617 9.63765 9.63742 9.39156C9.7007 9.44078 9.76398 9.49 9.82726 9.53922C9.5132 9.29547 9.22961 9.01187 8.98586 8.69781C9.03508 8.76109 9.08429 8.82437 9.13351 8.88765C8.88976 8.5689 8.68586 8.22203 8.52883 7.85172C8.55929 7.92672 8.59211 8.00172 8.62258 8.07672C8.46554 7.69703 8.35773 7.30093 8.30148 6.89312C8.3132 6.97515 8.32492 7.05953 8.33429 7.14156C8.28039 6.7314 8.28039 6.3189 8.33429 5.90875C8.32258 5.99078 8.31086 6.07515 8.30148 6.15719C8.35773 5.74937 8.46554 5.35328 8.62258 4.97359C8.59211 5.04859 8.55929 5.12359 8.52883 5.19859C8.68586 4.82828 8.88742 4.4814 9.13351 4.16265C9.08429 4.22593 9.03508 4.28922 8.98586 4.3525C9.22961 4.03843 9.5132 3.75484 9.82726 3.51109C9.76398 3.56031 9.7007 3.60953 9.63742 3.65875C9.95617 3.415 10.303 3.21109 10.6734 3.05406C10.5984 3.08453 10.5234 3.11734 10.4484 3.14781C10.828 2.99078 11.2241 2.88297 11.632 2.82672C11.5499 2.83843 11.4655 2.85015 11.3835 2.85953C11.7937 2.80562 12.2062 2.80562 12.6163 2.85953C12.5343 2.84781 12.4499 2.83609 12.3679 2.82672C12.7757 2.88297 13.1718 2.99078 13.5515 3.14781C13.4765 3.11734 13.4015 3.08453 13.3265 3.05406C13.6968 3.21109 14.0437 3.41265 14.3624 3.65875C14.2991 3.60953 14.2359 3.56031 14.1726 3.51109C14.4866 3.75484 14.7702 4.03843 15.014 4.3525C14.9648 4.28922 14.9155 4.22593 14.8663 4.16265C15.1101 4.4814 15.314 4.82828 15.471 5.19859C15.4405 5.12359 15.4077 5.04859 15.3773 4.97359C15.5343 5.35328 15.6421 5.74937 15.6984 6.15719C15.6866 6.07515 15.6749 5.99078 15.6656 5.90875C15.6913 6.11265 15.703 6.3189 15.7054 6.52515C15.7077 7.015 16.1343 7.48609 16.6429 7.46265C17.1491 7.43922 17.5827 7.05015 17.5804 6.52515C17.5757 5.4025 17.2382 4.25406 16.5773 3.34C16.3991 3.0939 16.2093 2.8525 15.9984 2.63453C15.7851 2.41422 15.5507 2.22437 15.307 2.03922C14.864 1.70172 14.3695 1.45328 13.8445 1.26109C11.728 0.48531 9.1757 1.17672 7.74367 2.92047C7.54679 3.15953 7.35929 3.40797 7.19992 3.67515C7.04054 3.94 6.91632 4.22125 6.80148 4.50718C6.58586 5.03687 6.4757 5.59937 6.43117 6.1689C6.34445 7.28453 6.63507 8.44937 7.21632 9.40562C7.77648 10.3291 8.62258 11.1212 9.61164 11.5689C9.90226 11.7002 10.1999 11.822 10.5093 11.9087C10.8163 11.9931 11.128 12.04 11.4445 12.0775C12.021 12.1455 12.6093 12.0986 13.1788 11.9837C15.3421 11.5431 17.1538 9.67984 17.489 7.49312C17.5382 7.17437 17.5757 6.85562 17.5757 6.53219C17.5781 6.04234 17.1421 5.57125 16.6382 5.59468C16.132 5.61109 15.7054 6.00015 15.7054 6.52515ZM18.8156 21.1806C18.3562 21.1806 17.8968 21.1806 17.4374 21.1806C16.3429 21.1806 15.2507 21.1806 14.1562 21.1806C12.839 21.1806 11.5218 21.1806 10.2023 21.1806C9.06554 21.1806 7.92882 21.1806 6.78976 21.1806C6.25773 21.1806 5.7257 21.1853 5.19367 21.1806C5.13507 21.1806 5.07648 21.1759 5.02023 21.1689C5.10226 21.1806 5.18663 21.1923 5.26867 21.2017C5.17492 21.1877 5.08585 21.1619 4.99913 21.1267C5.07413 21.1572 5.14913 21.19 5.22413 21.2205C5.13038 21.1806 5.04367 21.1291 4.96163 21.0658C5.02492 21.115 5.0882 21.1642 5.15148 21.2134C5.08117 21.1548 5.01554 21.0916 4.95929 21.0212C5.00851 21.0845 5.05773 21.1478 5.10695 21.2111C5.04367 21.1291 4.99445 21.0423 4.95226 20.9486C4.98273 21.0236 5.01554 21.0986 5.04601 21.1736C5.01085 21.0869 4.98742 20.9955 4.97101 20.9041C4.98273 20.9861 4.99445 21.0705 5.00382 21.1525C4.96632 20.8689 4.9921 20.5689 4.9921 20.283C4.9921 19.9478 4.9921 19.615 4.9921 19.2798C4.9921 19.0291 5.00617 18.7806 5.03898 18.5322C5.02726 18.6142 5.01554 18.6986 5.00617 18.7806C5.07179 18.3002 5.19835 17.8291 5.3882 17.3814C5.35773 17.4564 5.32492 17.5314 5.29445 17.6064C5.47726 17.1798 5.71164 16.7791 5.99523 16.4111C5.94601 16.4744 5.89679 16.5377 5.84757 16.6009C6.13117 16.2377 6.45695 15.9095 6.82257 15.6259C6.75929 15.6752 6.69601 15.7244 6.63273 15.7736C7.0007 15.49 7.40148 15.2556 7.82804 15.0728C7.75304 15.1033 7.67804 15.1361 7.60304 15.1666C8.0507 14.9791 8.51945 14.8502 9.00226 14.7845C8.92023 14.7962 8.83586 14.808 8.75383 14.8173C9.1007 14.7728 9.44523 14.7705 9.79445 14.7705C10.2234 14.7705 10.6523 14.7705 11.0812 14.7705C12.082 14.7705 13.0827 14.7705 14.0835 14.7705C14.4702 14.7705 14.8546 14.7681 15.2413 14.8173C15.1593 14.8056 15.0749 14.7939 14.9929 14.7845C15.4734 14.8502 15.9445 14.9767 16.3921 15.1666C16.3171 15.1361 16.2421 15.1033 16.1671 15.0728C16.5937 15.2556 16.9945 15.49 17.3624 15.7736C17.2991 15.7244 17.2359 15.6752 17.1726 15.6259C17.5359 15.9095 17.864 16.2353 18.1476 16.6009C18.0984 16.5377 18.0491 16.4744 17.9999 16.4111C18.2835 16.7791 18.5179 17.1798 18.7007 17.6064C18.6702 17.5314 18.6374 17.4564 18.607 17.3814C18.7945 17.8291 18.9234 18.2978 18.989 18.7806C18.9773 18.6986 18.9656 18.6142 18.9562 18.5322C19.0007 18.8861 19.0031 19.2377 19.0031 19.5939C19.0031 19.9806 19.0031 20.3673 19.0031 20.7541C19.0031 20.8877 19.0077 21.0212 18.9913 21.1525C19.0031 21.0705 19.0148 20.9861 19.0241 20.9041C19.0101 20.9978 18.9843 21.0869 18.9491 21.1736C18.9796 21.0986 19.0124 21.0236 19.0429 20.9486C19.0031 21.0423 18.9515 21.1291 18.8882 21.2111C18.9374 21.1478 18.9866 21.0845 19.0359 21.0212C18.9773 21.0916 18.914 21.1572 18.8437 21.2134C18.907 21.1642 18.9702 21.115 19.0335 21.0658C18.9515 21.1291 18.8648 21.1783 18.771 21.2205C18.846 21.19 18.921 21.1572 18.996 21.1267C18.9093 21.1619 18.8179 21.1853 18.7265 21.2017C18.8085 21.19 18.8929 21.1783 18.9749 21.1689C18.9234 21.1759 18.8695 21.1783 18.8156 21.1806C18.5741 21.183 18.3257 21.2837 18.1523 21.4548C17.9906 21.6166 17.8663 21.8837 17.8781 22.1181C17.9015 22.6197 18.2906 23.0627 18.8156 23.0556C19.7273 23.0416 20.5288 22.4462 20.796 21.572C20.9015 21.2252 20.8781 20.8525 20.8781 20.4962C20.8781 19.6806 20.9038 18.872 20.7632 18.0634C20.557 16.8798 19.9616 15.7666 19.146 14.8923C18.3304 14.0181 17.2335 13.3759 16.0734 13.09C15.4077 12.9259 14.7374 12.9002 14.0577 12.9002C13.3593 12.9002 12.6632 12.9002 11.9648 12.9002C11.2757 12.9002 10.589 12.9002 9.89992 12.9002C9.20383 12.9002 8.51242 12.933 7.83507 13.1134C6.68429 13.4181 5.60148 14.0673 4.80226 14.9486C3.99601 15.8369 3.41241 16.9525 3.22257 18.1431C3.09601 18.9423 3.12179 19.7439 3.12179 20.5502C3.12179 20.9205 3.1007 21.3072 3.23429 21.6611C3.40773 22.1158 3.68429 22.4744 4.08976 22.7439C4.40617 22.9525 4.80695 23.0533 5.18195 23.058C5.36476 23.0603 5.54757 23.058 5.73039 23.058C6.19914 23.058 6.66554 23.058 7.13429 23.058C7.79992 23.058 8.4632 23.058 9.12883 23.058C9.90226 23.058 10.6757 23.058 11.4491 23.058C12.2437 23.058 13.0359 23.058 13.8304 23.058C14.557 23.058 15.2812 23.058 16.0077 23.058C16.5773 23.058 17.1468 23.058 17.714 23.058C18.0398 23.058 18.3656 23.058 18.6913 23.058C18.7335 23.058 18.7757 23.058 18.8179 23.058C19.3077 23.058 19.7788 22.6267 19.7554 22.1205C19.732 21.6095 19.3429 21.1806 18.8156 21.1806Z" fill="white"/>
</g>
</svg>
